<?xml version="1.0" encoding="UTF-8" standalone="no"?>
<!DOCTYPE svg PUBLIC "-//W3C//DTD SVG 1.1//EN"
 "http://www.w3.org/Graphics/SVG/1.1/DTD/svg11.dtd">
<!-- Generated by graphviz version 2.40.1 (20161225.0304)
 -->
<!-- Title: G Pages: 1 -->
<svg width="285pt" height="136pt"
 viewBox="0.00 0.00 285.00 136.00" xmlns="http://www.w3.org/2000/svg" xmlns:xlink="http://www.w3.org/1999/xlink">
<g id="graph0" class="graph" transform="scale(1 1) rotate(0) translate(4 132)">
<title>G</title>
<polygon fill="#ffffff" stroke="transparent" points="-4,4 -4,-132 281,-132 281,4 -4,4"/>
<!-- A0 -->
<g id="node1" class="node">
<title>A0</title>
<polygon fill="none" stroke="#000000" points=".5,-64 .5,-96 129.5,-96 129.5,-64 .5,-64"/>
<text text-anchor="start" x="20.549" y="-77" font-family="Helvetica,sans-Serif" font-size="10.00" fill="#000000">raw_image_pipeline</text>
<polygon fill="none" stroke="#000000" points=".5,-32 .5,-64 129.5,-64 129.5,-32 .5,-32"/>
<text text-anchor="start" x="10.405" y="-45" font-family="Helvetica,sans-Serif" font-size="10.00" fill="#000000">image=img/example.png</text>
</g>
<!-- A1 -->
<g id="node2" class="node">
<title>A1</title>
<polygon fill="none" stroke="#000000" points="179,-96 179,-128 277,-128 277,-96 179,-96"/>
<text text-anchor="start" x="194.6615" y="-109" font-family="Helvetica,sans-Serif" font-size="10.00" fill="#000000">resize_pipeline</text>
<polygon fill="none" stroke="#000000" points="179,-64 179,-96 277,-96 277,-64 179,-64"/>
<text text-anchor="start" x="205.0745" y="-77" font-family="Helvetica,sans-Serif" font-size="10.00" fill="#000000">width=512</text>
<polygon fill="none" stroke="#000000" points="179,-32 179,-64 277,-64 277,-32 179,-32"/>
<text text-anchor="start" x="203.125" y="-45" font-family="Helvetica,sans-Serif" font-size="10.00" fill="#000000">height=512</text>
<polygon fill="none" stroke="#000000" points="179,0 179,-32 277,-32 277,0 179,0"/>
<text text-anchor="start" x="188.9535" y="-13" font-family="Helvetica,sans-Serif" font-size="10.00" fill="#000000">output_dir=output</text>
</g>
<!-- A0&#45;&gt;A1 -->
<g id="edge1" class="edge">
<title>A0&#45;&gt;A1</title>
<path fill="none" stroke="#000000" d="M129.1195,-64C142.2198,-64 155.9346,-64 168.8351,-64"/>
<polygon fill="#000000" stroke="#000000" points="178.9792,-64 168.9793,-68.5001 173.9792,-64 168.9792,-64.0001 168.9792,-64.0001 168.9792,-64.0001 173.9792,-64 168.9792,-59.5001 178.9792,-64 178.9792,-64"/>
</g>
</g>
</svg>
